<?xml version="1.0" encoding="UTF-8" standalone="no"?>
<svg
   xmlns:dc="http://purl.org/dc/elements/1.1/"
   xmlns:cc="http://creativecommons.org/ns#"
   xmlns:rdf="http://www.w3.org/1999/02/22-rdf-syntax-ns#"
   xmlns:svg="http://www.w3.org/2000/svg"
   xmlns="http://www.w3.org/2000/svg"
   xmlns:sodipodi="http://sodipodi.sourceforge.net/DTD/sodipodi-0.dtd"
   xmlns:inkscape="http://www.inkscape.org/namespaces/inkscape"
   width="64"
   height="64"
   version="1"
   id="svg46"
   sodipodi:docname="about-logo.svg"
   inkscape:version="0.92.4 5da689c313, 2019-01-14">
  <metadata
     id="metadata52">
    <rdf:RDF>
      <cc:Work
         rdf:about="">
        <dc:format>image/svg+xml</dc:format>
        <dc:type
           rdf:resource="http://purl.org/dc/dcmitype/StillImage" />
      </cc:Work>
    </rdf:RDF>
  </metadata>
  <defs
     id="defs50" />
  <sodipodi:namedview
     pagecolor="#ffffff"
     bordercolor="#666666"
     borderopacity="1"
     objecttolerance="10"
     gridtolerance="10"
     guidetolerance="10"
     inkscape:pageopacity="0"
     inkscape:pageshadow="2"
     inkscape:window-width="1820"
     inkscape:window-height="1126"
     id="namedview48"
     showgrid="false"
     inkscape:zoom="10.429825"
     inkscape:cx="14.837679"
     inkscape:cy="32"
     inkscape:window-x="15"
     inkscape:window-y="35"
     inkscape:window-maximized="0"
     inkscape:current-layer="svg46" />
  <path
     style="opacity:0.2"
     d="M 4,21.9 4,55.199219 C 4,56.750419 5.2495813,58 6.8007812,58 l 49.3988278,0 c 1.551201,0 2.754237,-1.250279 2.800782,-2.800781 l 0,-33.299219 z"
     id="path2" />
  <path
     style="fill:#e4e4e4"
     d="M 4,20.9 4,54.199219 C 4,55.750419 5.2495813,57 6.8007812,57 l 49.3988278,0 c 1.551201,0 2.800782,-1.249581 2.800782,-2.800781 l 0,-33.299219 z"
     id="path4" />
  <path
     style="opacity:0.2"
     d="m 59.000391,22 0,-11.2 c 0,-1.5512 -1.248801,-2.8 -2.8,-2.8 L 6.8,8 C 5.2488,8 4,9.2488 4,10.8 L 4,22 Z"
     id="path6" />
  <path
     style="fill:#008000"
     d="m 59.000391,21 0,-11.2 c 0,-1.5512 -1.248801,-2.8 -2.8,-2.8 L 6.8,7 C 5.2488,7 4,8.2488 4,9.8 L 4,21 Z"
     id="path8" />
  <rect
     style="opacity:0.2"
     width="8"
     height="8"
     x="33"
     y="24"
     id="rect10" />
  <rect
     style="opacity:0.2"
     width="8"
     height="8"
     x="44"
     y="24"
     id="rect12" />
  <rect
     style="opacity:0.2"
     width="8"
     height="8"
     x="22"
     y="24"
     id="rect14" />
  <rect
     style="opacity:0.2"
     width="8"
     height="8"
     x="11"
     y="24"
     id="rect16" />
  <circle
     style="opacity:0.2"
     cx="37"
     cy="40"
     r="4"
     id="circle18" />
  <circle
     style="fill:#008000"
     cx="37"
     cy="39"
     r="4"
     id="circle20" />
  <rect
     style="opacity:0.2"
     width="8"
     height="8"
     x="44"
     y="35"
     id="rect30" />
  <rect
     style="opacity:0.2"
     width="8"
     height="8"
     x="22"
     y="35"
     id="rect32" />
  <rect
     style="opacity:0.2"
     width="8"
     height="8"
     x="11"
     y="35"
     id="rect34" />
  <rect
     style="opacity:0.2"
     width="8"
     height="8"
     x="33"
     y="46"
     id="rect36" />
  <rect
     style="opacity:0.2"
     width="8"
     height="8"
     x="44"
     y="46"
     id="rect38" />
  <rect
     style="opacity:0.2"
     width="8"
     height="8"
     x="22"
     y="46"
     id="rect40" />
  <rect
     style="opacity:0.2"
     width="8"
     height="8"
     x="11"
     y="46"
     id="rect42" />
  <path
     style="fill:#ffffff;opacity:0.2"
     d="M 6.8007812 7 C 5.2495813 7 4 8.2495812 4 9.8007812 L 4 10.800781 C 4 9.2495812 5.2495813 8 6.8007812 8 L 56.201172 8 C 57.752371 8 59 9.2495813 59 10.800781 L 59 9.8007812 C 59 8.2495813 57.752371 7 56.201172 7 L 6.8007812 7 z"
     id="path44" />
</svg>
